# xmcd CD database file
#
# Track frame offsets:
#	150
#	28848
#	47389
#	85083
#	105180
#	129276
#	155463
#	163781
#	196713
#
# Disc length: 2731 seconds
#
# Revision: 0
# Processed by: cddbd v1.5.2PL0 Copyright (c) Steve Scherf et al.
# Submitted via: CDex 1.51
#
DISCID=5d0aa909
DTITLE=Filippa Gojo - Vertraum
DYEAR=2014
DGENRE=Jazz
TTITLE0=Lazy Afternoon
TTITLE1=Wer ku ka ka ku
TTITLE2=Do Mo trinkt bloach osom Bach
TTITLE3=Low slow
TTITLE4=My Water
TTITLE5=Trusting the uncertainty
TTITLE6=I woass net, wo i ane wett
TTITLE7=As hot it solle si
TTITLE8=Das minimale Spieluhren-Spiel
EXTD=YEAR: 2014
EXTT0=
EXTT1=
EXTT2=
EXTT3=
EXTT4=
EXTT5=
EXTT6=
EXTT7=
EXTT8=
PLAYORDER=
